<svg xmlns="http://www.w3.org/2000/svg" viewBox="0 0 1084.29 543.68"><defs><style>.cls-1{fill:#d3b48e;}.cls-2{fill:#e3ccb1;}.cls-3{fill:#f3e2ce;}</style></defs><g id="Layer_2" data-name="Layer 2"><g id="Layer_1-2" data-name="Layer 1"><path class="cls-1" d="M.14,511.73v1.48C1,512.72.44,512.23.14,511.73Z"/><path class="cls-1" d="M.14,511.73v-.79A.63.63,0,0,0,.14,511.73Z"/><path class="cls-1" d="M1084.29,32.4a2.54,2.54,0,0,0-2.53-2.53H2.67A2.53,2.53,0,0,0,.14,32.4V510.94a1.2,1.2,0,0,1,.31-.25c43.94-26.37,68-29.88,79.57-30.2,3.55-.09,5.75-.16,7.21-.16s3.66.07,7.21.16c11.59.32,35.63,3.83,79.57,30.2,52,31.22,96.86,32.9,111.71,33h.79c14.85-.09,59.67-1.77,111.71-33,43.94-26.37,68-29.88,79.57-30.2,3.55-.09,5.74-.16,7.21-.16s3.65.07,7.21.16c11.59.32,35.63,3.83,79.57,30.2,52,31.22,95.87,32.9,110.71,33h.79c14.85-.09,59.67-1.77,111.71-33,43.94-26.37,68-29.88,79.56-30.2,3.69-.09,5.92-.16,7.38-.16s3.69.07,7.37.16c11.59.32,35.63,3.83,79.57,30.2,52.36,31.41,97.44,32.92,112,33h.89l2.53,0Z"/><path class="cls-2" d="M1084.29,67a2.53,2.53,0,0,0-2.53-2.53H194.85v.65H3.33A2.53,2.53,0,0,0,.8,67.68C.73,115.9-.36,402,1.77,402H6.56c14.85-.09,59.68-1.77,111.71-33,44-26.36,68-29.88,79.57-30.19,3.73-.1,6-.17,7.43-.17v-.33c12.53.86,36.11,5.76,76.58,30,52.36,31.42,97.43,32.92,112,33h.88c14.56-.07,59.64-1.57,112-33,43.94-26.37,68-29.88,79.57-30.19,3.55-.1,5.75-.16,7.21-.17s3.66.07,7.21.17c11.59.31,35.63,3.82,79.57,30.19,52,31.22,96.86,32.9,111.71,33h.79c14.85-.09,59.67-1.77,111.71-33,43.94-26.37,68-29.88,79.57-30.19,3.55-.1,5.74-.16,7.21-.17s3.65.07,7.21.17c11.59.31,35.62,3.82,79.57,30.19,2.09,1.25,4.16,2.44,6.23,3.61Z"/><path class="cls-3" d="M1081.76,0H3.2A2.53,2.53,0,0,0,.67,2.53V273.45c1.47,0,3.71.07,7.44.17,11.59.31,35.62,3.83,79.56,30.19,52.36,31.42,97.44,32.93,112,33h.89c14.56-.07,59.64-1.58,112-33,43.94-26.36,68-29.88,79.57-30.19,3.55-.09,5.74-.16,7.21-.17s3.65.08,7.21.17c11.59.31,35.62,3.83,79.57,30.19,52,31.22,96.86,32.9,111.71,33h.79c14.85-.1,59.67-1.78,111.71-33,43.94-26.36,68-29.88,79.56-30.19,3.56-.09,5.75-.16,7.22-.17s3.65.08,7.21.17c11.59.31,35.62,3.83,79.57,30.19,52,31.22,95.87,32.9,110.71,33h.79c12.62-.08,46.92-1.32,88.9-20.88V2.53A2.53,2.53,0,0,0,1081.76,0Z"/></g></g></svg>