<svg xmlns="http://www.w3.org/2000/svg" viewBox="0 0 2388.76 1007.62"><defs><style>.cls-1{fill:#d3b48e;}.cls-2{fill:#e3ccb1;}.cls-3{fill:#f3e2ce;}</style></defs><g id="Layer_2" data-name="Layer 2"><g id="Layer_1-2" data-name="Layer 1"><path class="cls-1" d="M2074.67,26v3.91H.15V977.14c1.43-.82-1.14-1.65.31-2.52,43.94-26.36,68-29.88,79.56-30.19,3.56-.1,5.75-.16,7.22-.17s3.65.07,7.21.17c11.59.31,35.62,3.83,79.57,30.19,52,31.22,96.86,32.9,111.71,33h.79c14.84-.09,59.67-1.77,111.71-33,43.94-26.36,68-29.88,79.56-30.19,3.56-.1,5.75-.16,7.21-.17s3.66.07,7.22.17c11.59.31,35.62,3.83,79.56,30.19,52,31.22,95.88,32.9,110.71,33h.79c14.85-.09,59.68-1.77,111.71-33,44-26.36,68-29.88,79.57-30.19,3.69-.1,5.91-.17,7.38-.17s3.69.07,7.37.17c11.59.31,35.63,3.83,79.57,30.19,52.36,31.42,97.44,32.92,112,33h.88c14.56-.08,59.64-1.58,112-33,43.94-26.36,68-29.88,79.57-30.19,3.55-.1,5.75-.16,7.21-.17s3.66.07,7.21.17c11.59.31,35.63,3.83,79.57,30.19,52,31.22,96.86,32.9,111.71,33h.79c14.85-.09,59.68-1.77,111.71-33,43.94-26.36,68-29.88,79.57-30.19,3.55-.1,5.75-.16,7.21-.17s3.66.07,7.21.17c11.59.31,35.63,3.83,79.57,30.19,52,31.22,96.86,32.9,111.71,33h.79c14.85-.09,59.67-1.77,111.71-33,43.94-26.36,68-29.88,79.57-30.19,3.73-.1,6-.17,7.43-.17,0-.23,41.43.09,85.37,26.45,52.36,31.42,97.43,32.92,112,33h.88c14.56-.08,59.64-1.58,112-33l2.21-1.31V26Z"/><path class="cls-2" d="M2383.83,64.51h-2189v.65H.81s-1.24,800.73,1,800.74H6.57c14.85-.09,59.68-1.77,111.71-33,43.94-26.37,68-29.88,79.57-30.19,3.73-.11,6-.17,7.43-.17v-.34c12.53.87,36.1,5.76,76.57,30,52.36,31.42,97.44,32.93,112,33h.89c14.56-.07,59.64-1.58,112-33,43.94-26.36,68-29.87,79.56-30.19,3.56-.09,5.75-.16,7.22-.16s3.65.07,7.21.16c11.59.32,35.62,3.83,79.56,30.19,52,31.23,96.87,32.91,111.71,33h.79c14.85-.09,59.68-1.77,111.71-33,44-26.36,68-29.87,79.57-30.19,3.56-.09,5.75-.16,7.21-.16s3.66.07,7.22.16c11.58.32,35.62,3.83,79.56,30.19,52,31.22,95.88,32.91,110.71,33h.79c14.85-.09,59.68-1.77,111.71-33,44-26.36,68-29.87,79.57-30.19,3.69-.1,5.91-.16,7.38-.17s3.69.07,7.37.17c11.59.32,35.63,3.83,79.57,30.19,52.36,31.42,97.43,32.93,112,33h.88c14.56-.07,59.64-1.58,112-33,43.94-26.36,68-29.87,79.57-30.19,3.55-.09,5.75-.16,7.21-.16s3.66.07,7.21.16c11.59.32,35.63,3.83,79.57,30.19,52,31.23,96.86,32.91,111.71,33h.79c14.85-.09,59.68-1.77,111.71-33,43.94-26.36,68-29.87,79.57-30.19,3.55-.09,5.75-.16,7.21-.16s3.66.07,7.21.16c11.59.32,35.63,3.83,79.57,30.19,52,31.23,96.86,32.91,111.71,33h.79c1.29,0,2.81,0,4.54-.08V64.51Z"/><path class="cls-3" d="M2189.66,0H.68V737.39c1.46,0,3.7.07,7.43.17,11.59.31,35.63,3.82,79.57,30.19,52.36,31.41,97.44,32.92,112,33h.88c14.57-.07,59.64-1.58,112-33,43.95-26.37,68-29.88,79.57-30.19,3.56-.1,5.75-.17,7.21-.17s3.66.07,7.22.17c11.59.31,35.62,3.82,79.56,30.19,52,31.22,96.86,32.9,111.71,33h.79c14.85-.09,59.68-1.77,111.71-33,43.95-26.37,68-29.88,79.57-30.19,3.56-.1,5.75-.17,7.21-.17s3.66.07,7.21.17c11.59.31,35.63,3.82,79.57,30.19,52,31.22,95.87,32.9,110.71,33h.79c14.85-.09,59.68-1.77,111.71-33,43.94-26.37,68-29.88,79.57-30.19,3.68-.1,5.91-.17,7.37-.17s3.69.07,7.38.17c11.59.31,35.62,3.82,79.57,30.19,52.36,31.41,97.43,32.92,112,33h.88c14.56-.07,59.64-1.58,112-33,43.94-26.37,68-29.88,79.57-30.19,3.55-.1,5.75-.17,7.21-.17s3.66.07,7.21.17c11.59.31,35.63,3.82,79.57,30.19,52,31.22,96.86,32.9,111.71,33h.79c14.85-.09,59.67-1.77,111.71-33,43.94-26.37,68-29.88,79.57-30.19,3.55-.1,5.74-.17,7.21-.17s3.65.07,7.21.17c11.59.31,35.62,3.82,79.57,30.19,52,31.22,96.86,32.9,111.71,33h.79c14.85-.09,59.67-1.77,111.71-33,43.94-26.37,68-29.88,79.56-30.19,3.74-.1,6-.17,7.44-.17V0Z"/></g></g></svg>