<svg xmlns="http://www.w3.org/2000/svg" viewBox="0 0 1084.29 1007.62"><defs><style>.cls-1{fill:#d3b48e;}.cls-2{fill:#e3ccb1;}.cls-3{fill:#f3e2ce;}</style></defs><g id="Layer_2" data-name="Layer 2"><g id="Layer_1-2" data-name="Layer 1"><path class="cls-1" d="M.14,975.66v1.48C1,976.65.44,976.16.14,975.66Z"/><path class="cls-1" d="M.14,975.66v-.78A.62.62,0,0,0,.14,975.66Z"/><path class="cls-1" d="M1084.29,29.87H.14v945a1.21,1.21,0,0,1,.31-.26c43.94-26.36,68-29.88,79.57-30.19,3.55-.1,5.75-.16,7.21-.17s3.66.07,7.21.17c11.59.31,35.63,3.83,79.57,30.19,52,31.22,96.86,32.9,111.71,33h.79c14.85-.09,59.67-1.77,111.71-33,43.94-26.36,68-29.88,79.57-30.19,3.55-.1,5.74-.16,7.21-.17s3.65.07,7.21.17c11.59.31,35.63,3.83,79.57,30.19,52,31.22,95.87,32.9,110.71,33h.79c14.85-.09,59.67-1.77,111.71-33,43.94-26.36,68-29.88,79.56-30.19,3.69-.1,5.92-.17,7.38-.17s3.69.07,7.37.17c11.59.31,35.63,3.83,79.57,30.19,52.36,31.42,97.44,32.92,112,33h.89l2.53,0Z"/><path class="cls-2" d="M1084.29,64.51H194.85v.65H.81s-1.24,800.73,1,800.74H6.56c14.85-.09,59.68-1.77,111.71-33,44-26.37,68-29.88,79.57-30.19,3.73-.11,6-.17,7.43-.17v-.34c12.53.87,36.11,5.76,76.58,30,52.36,31.42,97.43,32.93,112,33h.88c14.56-.07,59.64-1.58,112-33,43.94-26.36,68-29.87,79.57-30.19,3.55-.09,5.75-.16,7.21-.16s3.66.07,7.21.16c11.59.32,35.63,3.83,79.57,30.19,52,31.23,96.86,32.91,111.71,33h.79c14.85-.09,59.67-1.77,111.71-33,43.94-26.36,68-29.87,79.57-30.19,3.55-.09,5.74-.16,7.21-.16s3.65.07,7.21.16c11.59.32,35.62,3.83,79.57,30.19,2.09,1.26,4.16,2.45,6.23,3.61Z"/><path class="cls-3" d="M1084.29,0H.67V737.39c1.47,0,3.71.07,7.44.17,11.59.31,35.62,3.82,79.56,30.19,52.36,31.41,97.44,32.92,112,33h.89c14.56-.07,59.64-1.58,112-33,43.94-26.37,68-29.88,79.57-30.19,3.55-.1,5.74-.17,7.21-.17s3.65.07,7.21.17c11.59.31,35.62,3.82,79.57,30.19,52,31.22,96.86,32.9,111.71,33h.79c14.85-.09,59.67-1.77,111.71-33,43.94-26.37,68-29.88,79.56-30.19,3.56-.1,5.75-.17,7.22-.17s3.65.07,7.21.17c11.59.31,35.62,3.82,79.57,30.19,52,31.22,95.87,32.9,110.71,33h.79c12.62-.08,46.92-1.32,88.9-20.87Z"/></g></g></svg>